<?xml version="1.0" encoding="UTF-8" standalone="no"?>
<!DOCTYPE svg PUBLIC "-//W3C//DTD SVG 1.1//EN"
 "http://www.w3.org/Graphics/SVG/1.1/DTD/svg11.dtd">
<!-- Generated by graphviz version 2.40.1 (20161225.0304)
 -->
<!-- Title: dependencies Pages: 1 -->
<svg width="933pt" height="284pt"
 viewBox="0.00 0.00 933.00 284.00" xmlns="http://www.w3.org/2000/svg" xmlns:xlink="http://www.w3.org/1999/xlink">
<g id="graph0" class="graph" transform="scale(1 1) rotate(0) translate(4 280)">
<title>dependencies</title>
<polygon fill="#ffffff" stroke="transparent" points="-4,4 -4,-280 929,-280 929,4 -4,4"/>
<text text-anchor="start" x="441.5091" y="-42.4" font-family="sans-serif" font-weight="bold" font-size="14.00" fill="#000000">Legend</text>
<polygon fill="#ffffb3" stroke="transparent" points="228.5,-10 228.5,-30 248.5,-30 248.5,-10 228.5,-10"/>
<text text-anchor="start" x="252.129" y="-15.4" font-family="sans-serif" font-size="14.00" fill="#000000"> &#160;Declarations</text>
<polygon fill="#8dd3c7" stroke="transparent" points="341.5,-10 341.5,-30 361.5,-30 361.5,-10 341.5,-10"/>
<text text-anchor="start" x="365.2251" y="-15.4" font-family="sans-serif" font-size="14.00" fill="#000000"> &#160;Module</text>
<polygon fill="#80b1d3" stroke="transparent" points="427.5,-10 427.5,-30 447.5,-30 447.5,-10 427.5,-10"/>
<text text-anchor="start" x="451.2812" y="-15.4" font-family="sans-serif" font-size="14.00" fill="#000000"> &#160;Bootstrap</text>
<polygon fill="#fdb462" stroke="transparent" points="524.5,-10 524.5,-30 544.5,-30 544.5,-10 524.5,-10"/>
<text text-anchor="start" x="548.1732" y="-15.4" font-family="sans-serif" font-size="14.00" fill="#000000"> &#160;Providers</text>
<polygon fill="#fb8072" stroke="transparent" points="620.5,-10 620.5,-30 640.5,-30 640.5,-10 620.5,-10"/>
<text text-anchor="start" x="644.2258" y="-15.4" font-family="sans-serif" font-size="14.00" fill="#000000"> &#160;Exports</text>
<g id="clust1" class="cluster">
<title>cluster_AppModule</title>
<polygon fill="none" stroke="#000000" stroke-dasharray="1,5" points="8,-70 8,-268 917,-268 917,-70 8,-70"/>
</g>
<g id="clust2" class="cluster">
<title>cluster_AppModule_declarations</title>
<polygon fill="none" stroke="#000000" points="326,-78 326,-130 909,-130 909,-78 326,-78"/>
</g>
<g id="clust7" class="cluster">
<title>cluster_AppModule_imports</title>
<polygon fill="none" stroke="#000000" points="174,-78 174,-130 318,-130 318,-78 174,-78"/>
</g>
<g id="clust9" class="cluster">
<title>cluster_AppModule_bootstrap</title>
<polygon fill="none" stroke="#000000" points="423,-208 423,-260 547,-260 547,-208 423,-208"/>
</g>
<g id="clust10" class="cluster">
<title>cluster_AppModule_providers</title>
<polygon fill="none" stroke="#000000" points="16,-78 16,-130 166,-130 166,-78 16,-78"/>
</g>
<!-- AppComponent -->
<g id="node1" class="node">
<title>AppComponent</title>
<polygon fill="#ffffb3" stroke="#000000" points="900.9399,-122 795.0601,-122 795.0601,-86 900.9399,-86 900.9399,-122"/>
<text text-anchor="middle" x="848" y="-99.8" font-family="Times,serif" font-size="14.00" fill="#000000">AppComponent</text>
</g>
<!-- AppModule -->
<g id="node5" class="node">
<title>AppModule</title>
<polygon fill="#8dd3c7" stroke="#000000" points="526.6571,-187 523.6571,-191 502.6571,-191 499.6571,-187 443.3429,-187 443.3429,-151 526.6571,-151 526.6571,-187"/>
<text text-anchor="middle" x="485" y="-164.8" font-family="Times,serif" font-size="14.00" fill="#000000">AppModule</text>
</g>
<!-- AppComponent&#45;&gt;AppModule -->
<g id="edge1" class="edge">
<title>AppComponent&#45;&gt;AppModule</title>
<path fill="none" stroke="#000000" d="M848,-122.2843C848,-143.3211 848,-175 848,-175 848,-175 536.9953,-175 536.9953,-175"/>
<polygon fill="#000000" stroke="#000000" points="536.9954,-171.5001 526.9953,-175 536.9953,-178.5001 536.9954,-171.5001"/>
</g>
<!-- CustomTimePipe -->
<g id="node2" class="node">
<title>CustomTimePipe</title>
<polygon fill="#ffffb3" stroke="#000000" points="776.9986,-122 663.0014,-122 663.0014,-86 776.9986,-86 776.9986,-122"/>
<text text-anchor="middle" x="720" y="-99.8" font-family="Times,serif" font-size="14.00" fill="#000000">CustomTimePipe</text>
</g>
<!-- CustomTimePipe&#45;&gt;AppModule -->
<g id="edge2" class="edge">
<title>CustomTimePipe&#45;&gt;AppModule</title>
<path fill="none" stroke="#000000" d="M720,-122.0225C720,-139.3734 720,-163 720,-163 720,-163 536.7425,-163 536.7425,-163"/>
<polygon fill="#000000" stroke="#000000" points="536.7425,-159.5001 526.7425,-163 536.7425,-166.5001 536.7425,-159.5001"/>
</g>
<!-- VideoDetailsComponent -->
<g id="node3" class="node">
<title>VideoDetailsComponent</title>
<polygon fill="#ffffb3" stroke="#000000" points="644.6965,-122 489.3035,-122 489.3035,-86 644.6965,-86 644.6965,-122"/>
<text text-anchor="middle" x="567" y="-99.8" font-family="Times,serif" font-size="14.00" fill="#000000">VideoDetailsComponent</text>
</g>
<!-- VideoDetailsComponent&#45;&gt;AppModule -->
<g id="edge3" class="edge">
<title>VideoDetailsComponent&#45;&gt;AppModule</title>
<path fill="none" stroke="#000000" d="M508.115,-122.1061C508.115,-122.1061 508.115,-140.991 508.115,-140.991"/>
<polygon fill="#000000" stroke="#000000" points="504.6151,-140.9909 508.115,-150.991 511.6151,-140.991 504.6151,-140.9909"/>
</g>
<!-- VideoListComponent -->
<g id="node4" class="node">
<title>VideoListComponent</title>
<polygon fill="#ffffb3" stroke="#000000" points="471.823,-122 334.177,-122 334.177,-86 471.823,-86 471.823,-122"/>
<text text-anchor="middle" x="403" y="-99.8" font-family="Times,serif" font-size="14.00" fill="#000000">VideoListComponent</text>
</g>
<!-- VideoListComponent&#45;&gt;AppModule -->
<g id="edge4" class="edge">
<title>VideoListComponent&#45;&gt;AppModule</title>
<path fill="none" stroke="#000000" d="M457.4166,-122.1061C457.4166,-122.1061 457.4166,-140.991 457.4166,-140.991"/>
<polygon fill="#000000" stroke="#000000" points="453.9166,-140.9909 457.4166,-150.991 460.9166,-140.991 453.9166,-140.9909"/>
</g>
<!-- AppComponent  -->
<g id="node7" class="node">
<title>AppComponent </title>
<polygon fill="#80b1d3" stroke="#000000" points="539.439,-252 430.561,-252 430.561,-216 539.439,-216 539.439,-252"/>
<text text-anchor="middle" x="485" y="-229.8" font-family="Times,serif" font-size="14.00" fill="#000000">AppComponent </text>
</g>
<!-- AppModule&#45;&gt;AppComponent  -->
<g id="edge6" class="edge">
<title>AppModule&#45;&gt;AppComponent </title>
<path fill="none" stroke="#000000" stroke-dasharray="1,5" d="M485,-187.1061C485,-187.1061 485,-205.991 485,-205.991"/>
<polygon fill="#000000" stroke="#000000" points="481.5001,-205.9909 485,-215.991 488.5001,-205.991 481.5001,-205.9909"/>
</g>
<!-- AppRoutingModule -->
<g id="node6" class="node">
<title>AppRoutingModule</title>
<polygon fill="#8dd3c7" stroke="#000000" points="310.2744,-122 307.2744,-126 286.2744,-126 283.2744,-122 181.7256,-122 181.7256,-86 310.2744,-86 310.2744,-122"/>
<text text-anchor="middle" x="246" y="-99.8" font-family="Times,serif" font-size="14.00" fill="#000000">AppRoutingModule</text>
</g>
<!-- AppRoutingModule&#45;&gt;AppModule -->
<g id="edge5" class="edge">
<title>AppRoutingModule&#45;&gt;AppModule</title>
<path fill="none" stroke="#000000" d="M246,-122.0225C246,-139.3734 246,-163 246,-163 246,-163 433.0959,-163 433.0959,-163"/>
<polygon fill="#000000" stroke="#000000" points="433.0959,-166.5001 443.0959,-163 433.0959,-159.5001 433.0959,-166.5001"/>
</g>
<!-- VideosService -->
<g id="node8" class="node">
<title>VideosService</title>
<ellipse fill="#fdb462" stroke="#000000" cx="91" cy="-104" rx="67.1927" ry="18"/>
<text text-anchor="middle" x="91" y="-99.8" font-family="Times,serif" font-size="14.00" fill="#000000">VideosService</text>
</g>
<!-- VideosService&#45;&gt;AppModule -->
<g id="edge7" class="edge">
<title>VideosService&#45;&gt;AppModule</title>
<path fill="none" stroke="#000000" d="M91,-122.2843C91,-143.3211 91,-175 91,-175 91,-175 433.2081,-175 433.2081,-175"/>
<polygon fill="#000000" stroke="#000000" points="433.2081,-178.5001 443.2081,-175 433.2081,-171.5001 433.2081,-178.5001"/>
</g>
</g>
</svg>
